# Blender v2.91.0 OBJ File: 'bartable.blend'
# www.blender.org
mtllib bartable.mtl
o Cube.001
v -0.607171 1.104108 -1.569811
v -0.474143 1.104108 -0.987249
v -0.607171 1.104108 -0.987249
v 0.607171 1.159477 -1.704706
v -0.607171 1.159477 -2.317188
v -0.607171 1.159477 -1.704706
v 0.607171 -0.239940 1.704706
v -0.607171 -0.239940 0.852353
v 0.607171 -0.239940 0.852353
v 0.607171 1.159476 1.704706
v 0.607171 1.159477 0.852354
v -0.607171 -0.239940 -1.704706
v 0.607171 -0.239940 -1.704706
v -0.607171 -0.239940 -2.317188
v 2.007842 -0.191222 -2.344181
v 2.137004 1.151719 2.264250
v 2.137004 -0.247697 2.264250
v 2.007842 1.208194 -2.344181
v -0.607171 -0.239940 2.317188
v -0.607171 -0.239940 1.704706
v -0.607171 1.159476 2.317188
v -0.607171 1.159477 0.000000
v 0.607171 1.159477 -0.852353
v -0.607171 1.159477 -0.852353
v -0.607171 1.159476 1.704706
v 0.607171 -0.239940 -0.000000
v 0.607171 1.159477 0.000000
v -0.607171 1.112500 -0.737903
v -0.474143 1.112500 -0.114449
v -0.607171 1.112500 -0.114449
v -0.607171 1.159477 0.852354
v -0.607171 -0.184571 -1.569811
v -0.474143 1.104108 -1.569811
v -0.607171 -0.239940 -0.852354
v 0.607171 -0.239940 -0.852354
v -0.607171 -0.188843 0.976841
v -0.474143 1.108380 0.976841
v -0.607171 1.108380 0.976841
v -0.607171 -0.239940 -0.000000
v -0.607171 -0.239940 -1.704706
v -0.607171 1.159477 -1.704706
v -0.607171 -0.239940 -0.852354
v -0.607171 1.159477 -0.852353
v -0.607171 -0.184571 -0.987249
v -0.607171 -0.192963 -0.114450
v -0.607171 -0.192963 -0.737904
v -0.607171 1.117040 0.103389
v -0.607171 -0.197503 0.103389
v -0.607171 1.117040 0.748964
v -0.607171 -0.197503 0.748964
v -0.607171 -0.188844 1.580219
v -0.607171 1.108380 1.580219
v -0.474143 -0.184571 -0.987249
v -0.474143 -0.188844 1.580219
v -0.474143 1.108380 1.580219
v -0.474143 1.112500 -0.737903
v -0.474143 -0.192963 -0.114450
v -0.474143 1.117040 0.103389
v -0.474143 -0.197503 0.748964
v -0.474143 1.117040 0.748964
v -0.474143 -0.188843 0.976841
v -0.474143 -0.184571 -1.569811
v -0.474143 -0.192963 -0.737904
v -0.474143 -0.197503 0.103389
vt 0.615109 0.240109
vt 0.615109 0.197391
vt 0.615109 0.197391
vt 0.625000 0.500000
vt 0.875000 0.500000
vt 0.875000 0.500000
vt 0.375000 0.750000
vt 0.125000 0.687500
vt 0.375000 0.687500
vt 0.625000 0.750000
vt 0.625000 0.687500
vt 0.625000 0.250000
vt 0.375000 0.250000
vt 0.625000 0.250000
vt 0.375000 0.500000
vt 0.125000 0.500000
vt 0.375000 0.500000
vt 0.625000 0.750000
vt 0.375000 0.750000
vt 0.625000 0.500000
vt 0.125000 0.750000
vt 0.125000 0.750000
vt 0.875000 0.750000
vt 0.375000 0.250000
vt 0.875000 0.625000
vt 0.625000 0.562500
vt 0.875000 0.562500
vt 0.375000 0.000000
vt 0.625000 0.000000
vt 0.375000 0.000000
vt 0.375000 1.000000
vt 0.375000 0.625000
vt 0.625000 0.625000
vt 0.616608 0.179108
vt 0.616608 0.133392
vt 0.616608 0.133392
vt 0.875000 0.687500
vt 0.384891 0.240109
vt 0.615109 0.240109
vt 0.125000 0.500000
vt 0.125000 0.562500
vt 0.375000 0.562500
vt 0.875000 0.750000
vt 0.384128 0.053372
vt 0.615872 0.053372
vt 0.615872 0.053372
vt 0.125000 0.625000
vt 0.000000 0.000000
vt 0.000000 0.000000
vt 0.000000 0.000000
vt 0.625000 0.250000
vt 0.625000 0.187500
vt 0.375000 0.187500
vt 0.375000 0.187500
vt 0.000000 0.000000
vt 0.000000 0.000000
vt 0.000000 0.000000
vt 0.375000 0.250000
vt 0.384891 0.197391
vt 0.625000 0.187500
vt 0.383392 0.133392
vt 0.625000 0.125000
vt 0.383392 0.179108
vt 0.375000 0.125000
vt 0.617419 0.117419
vt 0.382581 0.117419
vt 0.617419 0.070081
vt 0.375000 0.062500
vt 0.382581 0.070081
vt 0.625000 0.062500
vt 0.384128 0.009128
vt 0.615872 0.009128
vt 0.384891 0.197391
vt 0.384128 0.009128
vt 0.615872 0.009128
vt 0.616608 0.179108
vt 0.383392 0.133392
vt 0.617419 0.117419
vt 0.382581 0.070081
vt 0.617419 0.070081
vt 0.384128 0.053372
vt 0.384891 0.240109
vt 0.383392 0.179108
vt 0.382581 0.117419
vt 0.625000 0.000000
vt 0.625000 1.000000
vt 0.000000 0.000000
vt 0.000000 0.000000
vn 0.0000 -1.0000 0.0000
vn 0.0000 1.0000 0.0000
vn 0.0006 -1.0000 -0.0007
vn 1.0000 -0.0000 0.0000
vn -1.0000 -0.0000 0.0000
vn 0.0182 -0.9992 -0.0362
vn 0.3435 0.0000 -0.9392
vn 0.4153 -0.0000 0.9097
vn -0.0029 -1.0000 -0.0044
vn -0.0004 1.0000 0.0005
vn 0.0029 1.0000 0.0044
vn 0.0029 1.0000 0.0058
vn -0.0103 0.0000 -0.9999
vn 0.0193 0.0000 0.9998
vn -0.0182 0.9992 0.0362
vn 0.0000 -0.0000 1.0000
vn -0.0029 -1.0000 -0.0058
vn 0.0000 0.0000 0.0000
vn 0.0000 0.0000 -1.0000
usemtl Material.001
s 1
f 1/1/1 2/2/1 3/3/1
f 4/4/2 5/5/2 6/6/2
f 7/7/3 8/8/1 9/9/1
f 10/10/4 9/9/4 11/11/4
f 5/12/5 12/13/5 6/14/5
f 13/15/6 14/16/6 15/17/6
f 7/7/7 16/18/7 17/19/7
f 4/4/8 15/17/8 18/20/8
f 7/7/3 19/21/9 20/22/1
f 10/10/10 21/23/11 16/18/12
f 5/12/13 15/17/13 14/24/13
f 22/25/2 23/26/2 24/27/2
f 19/28/5 25/29/5 20/30/5
f 16/18/14 19/31/14 17/19/14
f 11/11/4 26/32/4 27/33/4
f 4/4/15 18/20/15 5/5/15
f 28/34/1 29/35/1 30/36/1
f 31/37/2 27/33/2 22/25/2
f 32/38/16 33/39/16 1/1/16
f 13/15/1 12/40/1 14/16/1
f 23/26/4 13/15/4 4/4/4
f 26/32/1 34/41/1 35/42/1
f 7/7/3 17/19/17 19/21/9
f 10/10/10 25/43/2 21/23/11
f 36/44/16 37/45/16 38/46/16
f 27/33/4 35/42/4 23/26/4
f 24/27/2 4/4/2 6/6/2
f 35/42/1 12/40/1 13/15/1
f 25/43/2 11/11/2 31/37/2
f 9/9/1 39/47/1 26/32/1
f 40/48/18 6/49/18 12/50/18
f 41/51/18 24/52/18 6/14/18
f 42/53/18 12/13/18 34/54/18
f 43/55/18 34/56/18 24/57/18
f 1/1/5 40/58/5 32/38/5
f 3/3/5 41/51/5 1/1/5
f 32/38/5 42/53/5 44/59/5
f 44/59/5 43/60/5 3/3/5
f 30/36/5 24/52/5 28/34/5
f 45/61/5 22/62/5 30/36/5
f 46/63/5 39/64/5 45/61/5
f 28/34/5 34/54/5 46/63/5
f 47/65/5 39/64/5 48/66/5
f 49/67/5 22/62/5 47/65/5
f 48/66/5 8/68/5 50/69/5
f 50/69/5 31/70/5 49/67/5
f 36/44/5 20/30/5 51/71/5
f 51/71/5 25/29/5 52/72/5
f 52/72/5 31/70/5 38/46/5
f 38/46/5 8/68/5 36/44/5
f 33/39/5 53/73/5 2/2/5
f 37/45/5 54/74/5 55/75/5
f 56/76/5 57/77/5 29/35/5
f 58/78/5 59/79/5 60/80/5
f 48/66/16 58/78/16 47/65/16
f 30/36/19 57/77/19 45/61/19
f 51/71/2 61/81/2 36/44/2
f 44/59/2 62/82/2 32/38/2
f 47/65/1 60/80/1 49/67/1
f 45/61/2 63/83/2 46/63/2
f 52/72/19 54/74/19 51/71/19
f 3/3/19 53/73/19 44/59/19
f 50/69/2 64/84/2 48/66/2
f 46/63/16 56/76/16 28/34/16
f 38/46/1 55/75/1 52/72/1
f 49/67/19 59/79/19 50/69/19
f 1/1/1 33/39/1 2/2/1
f 7/7/3 20/22/1 8/8/1
f 10/10/4 7/7/4 9/9/4
f 5/12/5 14/24/5 12/13/5
f 7/7/7 10/10/7 16/18/7
f 4/4/8 13/15/8 15/17/8
f 5/12/13 18/20/13 15/17/13
f 22/25/2 27/33/2 23/26/2
f 19/28/5 21/85/5 25/29/5
f 16/18/14 21/86/14 19/31/14
f 11/11/4 9/9/4 26/32/4
f 28/34/1 56/76/1 29/35/1
f 31/37/2 11/11/2 27/33/2
f 32/38/16 62/82/16 33/39/16
f 23/26/4 35/42/4 13/15/4
f 26/32/1 39/47/1 34/41/1
f 36/44/16 61/81/16 37/45/16
f 27/33/4 26/32/4 35/42/4
f 24/27/2 23/26/2 4/4/2
f 35/42/1 34/41/1 12/40/1
f 25/43/2 10/10/10 11/11/2
f 9/9/1 8/8/1 39/47/1
f 40/48/18 41/87/18 6/49/18
f 41/51/18 43/60/18 24/52/18
f 42/53/18 40/58/18 12/13/18
f 43/55/18 42/88/18 34/56/18
f 1/1/5 41/51/5 40/58/5
f 3/3/5 43/60/5 41/51/5
f 32/38/5 40/58/5 42/53/5
f 44/59/5 42/53/5 43/60/5
f 30/36/5 22/62/5 24/52/5
f 45/61/5 39/64/5 22/62/5
f 46/63/5 34/54/5 39/64/5
f 28/34/5 24/52/5 34/54/5
f 47/65/5 22/62/5 39/64/5
f 49/67/5 31/70/5 22/62/5
f 48/66/5 39/64/5 8/68/5
f 50/69/5 8/68/5 31/70/5
f 36/44/5 8/68/5 20/30/5
f 51/71/5 20/30/5 25/29/5
f 52/72/5 25/29/5 31/70/5
f 38/46/5 31/70/5 8/68/5
f 33/39/5 62/82/5 53/73/5
f 37/45/5 61/81/5 54/74/5
f 56/76/5 63/83/5 57/77/5
f 58/78/5 64/84/5 59/79/5
f 48/66/16 64/84/16 58/78/16
f 30/36/19 29/35/19 57/77/19
f 51/71/2 54/74/2 61/81/2
f 44/59/2 53/73/2 62/82/2
f 47/65/1 58/78/1 60/80/1
f 45/61/2 57/77/2 63/83/2
f 52/72/19 55/75/19 54/74/19
f 3/3/19 2/2/19 53/73/19
f 50/69/2 59/79/2 64/84/2
f 46/63/16 63/83/16 56/76/16
f 38/46/1 37/45/1 55/75/1
f 49/67/19 60/80/19 59/79/19
