# Blender v2.91.0 OBJ File: 'project.blend'
# www.blender.org
mtllib project.mtl
o Cylinder
v -0.000000 1.532246 -0.188305
v 0.000000 1.625205 -1.370644
v 0.036737 1.532246 -0.184687
v 0.267399 1.625205 -1.344308
v 0.072061 1.532246 -0.173971
v 0.524523 1.625205 -1.266310
v 0.104617 1.532246 -0.156570
v 0.761489 1.625205 -1.139649
v 0.133152 1.532246 -0.133152
v 0.969192 1.625205 -0.969192
v 0.156570 1.532246 -0.104617
v 1.139649 1.625205 -0.761489
v 0.173971 1.532246 -0.072061
v 1.266310 1.625205 -0.524523
v 0.184687 1.532246 -0.036737
v 1.344308 1.625205 -0.267399
v 0.188305 1.532246 -0.000000
v 1.370644 1.625205 -0.000000
v 0.184687 1.532246 0.036736
v 1.344308 1.625205 0.267399
v 0.173971 1.532246 0.072061
v 1.266310 1.625205 0.524523
v 0.156570 1.532246 0.104616
v 1.139649 1.625205 0.761489
v 0.133152 1.532246 0.133152
v 0.969192 1.625205 0.969192
v 0.104617 1.532246 0.156570
v 0.761489 1.625205 1.139649
v 0.072061 1.532246 0.173971
v 0.524523 1.625205 1.266310
v 0.036736 1.532246 0.184687
v 0.267399 1.625205 1.344308
v -0.000000 1.532246 0.188305
v -0.000000 1.625205 1.370644
v -0.036736 1.532246 0.184687
v -0.267400 1.625205 1.344308
v -0.072061 1.532246 0.173971
v -0.524523 1.625205 1.266310
v -0.104617 1.532246 0.156570
v -0.761490 1.625205 1.139649
v -0.133152 1.532246 0.133151
v -0.969193 1.625205 0.969191
v -0.156570 1.532246 0.104616
v -1.139650 1.625205 0.761488
v -0.173971 1.532246 0.072061
v -1.266311 1.625205 0.524522
v -0.184687 1.532246 0.036736
v -1.344308 1.625205 0.267398
v -0.188305 1.532246 -0.000000
v -1.370644 1.625205 -0.000001
v -0.184687 1.532246 -0.036737
v -1.344308 1.625205 -0.267401
v -0.173971 1.532246 -0.072062
v -1.266310 1.625205 -0.524524
v -0.156570 1.532246 -0.104617
v -1.139648 1.625205 -0.761491
v -0.133152 1.532246 -0.133152
v -0.969191 1.625205 -0.969193
v -0.104616 1.532246 -0.156570
v -0.761488 1.625205 -1.139650
v -0.072061 1.532246 -0.173971
v -0.524521 1.625205 -1.266311
v -0.036736 1.532246 -0.184687
v -0.267397 1.625205 -1.344308
v 0.000000 1.532246 -1.370644
v 0.267399 1.532246 -1.344308
v 0.524523 1.532246 -1.266310
v 0.761489 1.532246 -1.139649
v 0.969192 1.532246 -0.969192
v 1.139649 1.532246 -0.761489
v 1.266310 1.532246 -0.524523
v 1.344308 1.532246 -0.267399
v 1.370644 1.532246 -0.000000
v 1.344308 1.532246 0.267399
v 1.266310 1.532246 0.524523
v 1.139649 1.532246 0.761489
v 0.969192 1.532246 0.969192
v 0.761489 1.532246 1.139649
v 0.524523 1.532246 1.266310
v 0.267399 1.532246 1.344308
v -0.000000 1.532246 1.370644
v -0.267400 1.532246 1.344308
v -0.524523 1.532246 1.266310
v -0.761490 1.532246 1.139649
v -0.969193 1.532246 0.969191
v -1.139650 1.532246 0.761488
v -1.266311 1.532246 0.524522
v -1.344308 1.532246 0.267398
v -1.370644 1.532246 -0.000001
v -1.344308 1.532246 -0.267401
v -1.266310 1.532246 -0.524524
v -1.139648 1.532246 -0.761491
v -0.969191 1.532246 -0.969193
v -0.761488 1.532246 -1.139650
v -0.524521 1.532246 -1.266311
v -0.267397 1.532246 -1.344308
v -0.000000 -0.606499 -0.188305
v 0.036737 -0.606499 -0.184687
v 0.072061 -0.606499 -0.173971
v 0.104617 -0.606499 -0.156570
v 0.133152 -0.606499 -0.133152
v 0.156570 -0.606499 -0.104617
v 0.173971 -0.606499 -0.072061
v 0.184687 -0.606499 -0.036737
v 0.188305 -0.606499 -0.000000
v 0.184687 -0.606499 0.036736
v 0.173971 -0.606499 0.072061
v 0.156570 -0.606499 0.104616
v 0.133152 -0.606499 0.133152
v 0.104617 -0.606499 0.156570
v 0.072061 -0.606499 0.173971
v 0.036736 -0.606499 0.184687
v -0.000000 -0.606499 0.188305
v -0.036737 -0.606499 0.184687
v -0.072061 -0.606499 0.173971
v -0.104617 -0.606499 0.156570
v -0.133152 -0.606499 0.133151
v -0.156570 -0.606499 0.104616
v -0.173971 -0.606499 0.072061
v -0.184687 -0.606499 0.036736
v -0.188305 -0.606499 -0.000000
v -0.184687 -0.606499 -0.036737
v -0.173971 -0.606499 -0.072062
v -0.156570 -0.606499 -0.104617
v -0.133152 -0.606499 -0.133152
v -0.104616 -0.606499 -0.156570
v -0.072061 -0.606499 -0.173971
v -0.036736 -0.606499 -0.184687
v -0.072061 -0.449098 -0.173971
v -0.104616 -0.449098 -0.156570
v -0.036737 -0.449098 0.184687
v -0.000000 -0.449098 0.188305
v 0.133152 -0.449098 -0.133152
v 0.104617 -0.449098 -0.156570
v -0.036736 -0.449098 -0.184687
v -0.072061 -0.449098 0.173971
v 0.156570 -0.449098 -0.104617
v -0.000000 -0.449098 -0.188305
v -0.104617 -0.449098 0.156570
v 0.173971 -0.449098 -0.072061
v -0.133152 -0.449098 0.133151
v 0.184687 -0.449098 -0.036737
v -0.156570 -0.449098 0.104616
v 0.188305 -0.449098 -0.000000
v -0.173971 -0.449098 0.072061
v 0.184687 -0.449098 0.036736
v -0.184687 -0.449098 0.036736
v 0.173971 -0.449098 0.072061
v -0.188305 -0.449098 -0.000000
v 0.156570 -0.449098 0.104616
v -0.184687 -0.449098 -0.036737
v 0.133152 -0.449098 0.133152
v -0.173971 -0.449098 -0.072062
v 0.104617 -0.449098 0.156570
v -0.156570 -0.449098 -0.104617
v 0.072061 -0.449098 0.173971
v 0.036737 -0.449098 -0.184687
v -0.133152 -0.449098 -0.133152
v 0.036736 -0.449098 0.184687
v 0.072061 -0.449098 -0.173971
v 0.080155 -0.606499 -1.002120
v 0.116891 -0.606499 -0.998502
v 0.998502 -0.606499 -0.116891
v 1.002120 -0.606499 -0.080155
v 0.116890 -0.606499 0.998502
v 0.080154 -0.606499 1.002120
v -0.998502 -0.606499 0.116889
v -1.002120 -0.606499 0.080152
v 0.080155 -0.449098 -1.002120
v 0.998502 -0.449098 -0.116891
v 1.002120 -0.449098 -0.080155
v -0.998502 -0.449098 0.116889
v -1.002120 -0.449098 0.080152
v 0.116891 -0.449098 -0.998502
v 0.116890 -0.449098 0.998502
v 0.080154 -0.449098 1.002120
vt 1.000000 1.000000
vt 0.968750 0.500000
vt 1.000000 0.500000
vt 0.968750 1.000000
vt 0.937500 0.500000
vt 0.937500 1.000000
vt 0.906250 0.500000
vt 0.906250 1.000000
vt 0.875000 0.500000
vt 0.875000 1.000000
vt 0.843750 0.500000
vt 0.843750 1.000000
vt 0.812500 0.500000
vt 0.812500 1.000000
vt 0.781250 0.500000
vt 0.781250 1.000000
vt 0.750000 0.500000
vt 0.750000 1.000000
vt 0.718750 0.500000
vt 0.718750 1.000000
vt 0.687500 0.500000
vt 0.687500 1.000000
vt 0.656250 0.500000
vt 0.656250 1.000000
vt 0.625000 0.500000
vt 0.625000 1.000000
vt 0.593750 0.500000
vt 0.593750 1.000000
vt 0.562500 0.500000
vt 0.562500 1.000000
vt 0.531250 0.500000
vt 0.531250 1.000000
vt 0.500000 0.500000
vt 0.500000 1.000000
vt 0.468750 0.500000
vt 0.468750 1.000000
vt 0.437500 0.500000
vt 0.437500 1.000000
vt 0.406250 0.500000
vt 0.406250 1.000000
vt 0.375000 0.500000
vt 0.375000 1.000000
vt 0.343750 0.500000
vt 0.343750 1.000000
vt 0.312500 0.500000
vt 0.312500 1.000000
vt 0.281250 0.500000
vt 0.281250 1.000000
vt 0.250000 0.500000
vt 0.250000 1.000000
vt 0.218750 0.500000
vt 0.218750 1.000000
vt 0.187500 0.500000
vt 0.187500 1.000000
vt 0.156250 0.500000
vt 0.156250 1.000000
vt 0.125000 0.500000
vt 0.125000 1.000000
vt 0.093750 0.500000
vt 0.093750 1.000000
vt 0.062500 0.500000
vt 0.028269 0.341844
vt 0.158156 0.028269
vt 0.471731 0.158156
vt 0.062500 1.000000
vt 0.031250 0.500000
vt 0.031250 1.000000
vt 0.000000 0.500000
vt 0.702804 0.363942
vt 0.681482 0.352545
vt 0.681481 0.352545
vt 0.750000 0.373330
vt 0.796822 0.485388
vt 0.774060 0.370960
vt 0.841844 0.471731
vt 0.797196 0.363942
vt 0.818519 0.352545
vt 0.883337 0.449553
vt 0.837207 0.337207
vt 0.919706 0.419706
vt 0.852545 0.318518
vt 0.949553 0.383337
vt 0.971731 0.341844
vt 0.863942 0.297196
vt 0.985388 0.296822
vt 0.870960 0.274061
vt 0.990000 0.250000
vt 0.873330 0.250000
vt 0.870960 0.225939
vt 0.985388 0.203178
vt 0.863942 0.202804
vt 0.971731 0.158156
vt 0.852545 0.181481
vt 0.949553 0.116663
vt 0.919706 0.080294
vt 0.837207 0.162792
vt 0.883337 0.050447
vt 0.818518 0.147455
vt 0.841844 0.028269
vt 0.797196 0.136058
vt 0.796822 0.014612
vt 0.774060 0.129040
vt 0.750000 0.010000
vt 0.750000 0.126670
vt 0.725939 0.129040
vt 0.703178 0.014612
vt 0.702804 0.136058
vt 0.658156 0.028269
vt 0.616663 0.050447
vt 0.681481 0.147455
vt 0.662792 0.162793
vt 0.580294 0.080294
vt 0.647455 0.181482
vt 0.550447 0.116663
vt 0.528269 0.158156
vt 0.636058 0.202804
vt 0.629040 0.225940
vt 0.514611 0.203179
vt 0.510000 0.250000
vt 0.626670 0.250000
vt 0.514612 0.296822
vt 0.629040 0.274061
vt 0.528269 0.341844
vt 0.636058 0.297196
vt 0.647455 0.318519
vt 0.550447 0.383337
vt 0.580295 0.419706
vt 0.662793 0.337208
vt 0.616663 0.449553
vt 0.681482 0.352545
vt 0.658156 0.471731
vt 0.702804 0.363942
vt 0.703179 0.485389
vt 0.725940 0.370960
vt 0.750000 0.490000
vt 0.647455 0.318519
vt 0.725940 0.370960
vt 0.774060 0.129040
vt 0.725939 0.129040
vt 0.750000 0.126670
vt 0.750000 0.126670
vt 0.837207 0.337207
vt 0.818519 0.352545
vt 0.818519 0.352545
vt 0.725940 0.370960
vt 0.702804 0.363942
vt 0.702804 0.136058
vt 0.725939 0.129040
vt 0.852545 0.318518
vt 0.837207 0.337207
vt 0.750000 0.373330
vt 0.681481 0.147455
vt 0.702804 0.136058
vt 0.863942 0.297196
vt 0.852545 0.318518
vt 0.662792 0.162793
vt 0.681481 0.147455
vt 0.870960 0.274061
vt 0.863942 0.297196
vt 0.647455 0.181482
vt 0.662792 0.162793
vt 0.750000 0.126670
vt 0.636058 0.202804
vt 0.647455 0.181482
vt 0.870960 0.225939
vt 0.873330 0.250000
vt 0.873330 0.250000
vt 0.629040 0.225940
vt 0.636058 0.202804
vt 0.863942 0.202804
vt 0.870960 0.225939
vt 0.750000 0.373330
vt 0.774060 0.370960
vt 0.774060 0.370960
vt 0.852545 0.181481
vt 0.863942 0.202804
vt 0.629040 0.274061
vt 0.626670 0.250000
vt 0.626670 0.250000
vt 0.837207 0.162792
vt 0.852545 0.181481
vt 0.636058 0.297196
vt 0.629040 0.274061
vt 0.818518 0.147455
vt 0.837207 0.162792
vt 0.647455 0.318519
vt 0.636058 0.297196
vt 0.797196 0.136058
vt 0.818518 0.147455
vt 0.870960 0.274061
vt 0.873330 0.250000
vt 0.662793 0.337208
vt 0.774060 0.129040
vt 0.797196 0.136058
vt 0.797196 0.363942
vt 0.774060 0.370960
vt 0.662793 0.337208
vt 0.626670 0.250000
vt 0.629040 0.225940
vt 0.797196 0.363942
vt 0.873330 0.250000
vt 0.870960 0.274061
vt 0.629040 0.225940
vt 0.774060 0.370960
vt 0.750000 0.373330
vt 0.750000 0.373330
vt 0.750000 0.126670
vt 0.774060 0.129040
vt 0.774060 0.129040
vt 0.870960 0.274061
vt 0.629040 0.225940
vt 0.626670 0.250000
vt 0.341844 0.471731
vt 0.296822 0.485388
vt 0.250000 0.490000
vt 0.203179 0.485389
vt 0.158156 0.471731
vt 0.116663 0.449553
vt 0.080295 0.419706
vt 0.050447 0.383337
vt 0.014612 0.296822
vt 0.010000 0.250000
vt 0.014611 0.203179
vt 0.028269 0.158156
vt 0.050447 0.116663
vt 0.080294 0.080294
vt 0.116663 0.050447
vt 0.203178 0.014612
vt 0.250000 0.010000
vt 0.296822 0.014612
vt 0.341844 0.028269
vt 0.383337 0.050447
vt 0.419706 0.080294
vt 0.449553 0.116663
vt 0.485388 0.203178
vt 0.490000 0.250000
vt 0.485388 0.296822
vt 0.471731 0.341844
vt 0.449553 0.383337
vt 0.419706 0.419706
vt 0.383337 0.449553
vt 0.000000 1.000000
vn 0.0980 0.0000 -0.9952
vn 0.2903 0.0000 -0.9569
vn 0.4714 0.0000 -0.8819
vn 0.6344 0.0000 -0.7730
vn 0.7730 0.0000 -0.6344
vn 0.8819 0.0000 -0.4714
vn 0.9569 0.0000 -0.2903
vn 0.9952 0.0000 -0.0980
vn 0.9952 0.0000 0.0980
vn 0.9569 0.0000 0.2903
vn 0.8819 0.0000 0.4714
vn 0.7730 0.0000 0.6344
vn 0.6344 0.0000 0.7730
vn 0.4714 0.0000 0.8819
vn 0.2903 0.0000 0.9569
vn 0.0980 0.0000 0.9952
vn -0.0980 0.0000 0.9952
vn -0.2903 0.0000 0.9569
vn -0.4714 0.0000 0.8819
vn -0.6344 0.0000 0.7730
vn -0.7730 0.0000 0.6344
vn -0.8819 0.0000 0.4714
vn -0.9569 0.0000 0.2903
vn -0.9952 0.0000 0.0980
vn -0.9952 0.0000 -0.0980
vn -0.9569 0.0000 -0.2903
vn -0.8819 0.0000 -0.4714
vn -0.7730 0.0000 -0.6344
vn -0.6344 0.0000 -0.7730
vn -0.4714 0.0000 -0.8819
vn 0.0000 1.0000 0.0000
vn -0.2903 0.0000 -0.9569
vn -0.0980 0.0000 -0.9952
vn -0.0000 -1.0000 0.0000
usemtl Material
s off
f 2/1/1 66/2/1 65/3/1
f 4/4/2 67/5/2 66/2/2
f 6/6/3 68/7/3 67/5/3
f 8/8/4 69/9/4 68/7/4
f 10/10/5 70/11/5 69/9/5
f 12/12/6 71/13/6 70/11/6
f 14/14/7 72/15/7 71/13/7
f 16/16/8 73/17/8 72/15/8
f 18/18/9 74/19/9 73/17/9
f 20/20/10 75/21/10 74/19/10
f 22/22/11 76/23/11 75/21/11
f 24/24/12 77/25/12 76/23/12
f 26/26/13 78/27/13 77/25/13
f 28/28/14 79/29/14 78/27/14
f 30/30/15 80/31/15 79/29/15
f 32/32/16 81/33/16 80/31/16
f 34/34/17 82/35/17 81/33/17
f 36/36/18 83/37/18 82/35/18
f 38/38/19 84/39/19 83/37/19
f 40/40/20 85/41/20 84/39/20
f 42/42/21 86/43/21 85/41/21
f 44/44/22 87/45/22 86/43/22
f 46/46/23 88/47/23 87/45/23
f 48/48/24 89/49/24 88/47/24
f 50/50/25 90/51/25 89/49/25
f 52/52/26 91/53/26 90/51/26
f 54/54/27 92/55/27 91/53/27
f 56/56/28 93/57/28 92/55/28
f 58/58/29 94/59/29 93/57/29
f 60/60/30 95/61/30 94/59/30
f 54/62/31 38/63/31 22/64/31
f 62/65/32 96/66/32 95/61/32
f 64/67/33 65/68/33 96/66/33
f 129/69/30 126/70/30 130/71/30
f 1/72/34 66/73/34 3/74/34
f 3/74/34 67/75/34 5/76/34
f 7/77/34 67/75/34 68/78/34
f 9/79/34 68/78/34 69/80/34
f 11/81/34 69/80/34 70/82/34
f 11/81/34 71/83/34 13/84/34
f 13/84/34 72/85/34 15/86/34
f 15/86/34 73/87/34 17/88/34
f 19/89/34 73/87/34 74/90/34
f 21/91/34 74/90/34 75/92/34
f 23/93/34 75/92/34 76/94/34
f 23/93/34 77/95/34 25/96/34
f 25/96/34 78/97/34 27/98/34
f 27/98/34 79/99/34 29/100/34
f 29/100/34 80/101/34 31/102/34
f 31/102/34 81/103/34 33/104/34
f 35/105/34 81/103/34 82/106/34
f 37/107/34 82/106/34 83/108/34
f 37/107/34 84/109/34 39/110/34
f 41/111/34 84/109/34 85/112/34
f 43/113/34 85/112/34 86/114/34
f 43/113/34 87/115/34 45/116/34
f 47/117/34 87/115/34 88/118/34
f 47/117/34 89/119/34 49/120/34
f 49/120/34 90/121/34 51/122/34
f 51/122/34 91/123/34 53/124/34
f 55/125/34 91/123/34 92/126/34
f 55/125/34 93/127/34 57/128/34
f 57/128/34 94/129/34 59/130/34
f 59/130/34 95/131/34 61/132/34
f 61/132/34 96/133/34 63/134/34
f 1/72/34 96/133/34 65/135/34
f 124/136/34 128/137/34 112/138/34
f 131/139/17 113/140/17 132/141/17
f 133/142/4 100/143/4 134/144/4
f 135/145/32 127/146/32 129/69/32
f 136/147/18 114/148/18 131/139/18
f 137/149/5 101/150/5 133/142/5
f 138/151/33 128/137/33 135/145/33
f 139/152/19 115/153/19 136/147/19
f 140/154/6 102/155/6 137/149/6
f 141/156/20 116/157/20 139/152/20
f 142/158/7 103/159/7 140/154/7
f 143/160/21 117/161/21 141/156/21
f 112/138/34 166/162/34 113/140/34
f 145/163/22 118/164/22 143/160/22
f 146/165/9 105/166/9 144/167/9
f 147/168/23 119/169/23 145/163/23
f 148/170/10 106/171/10 146/165/10
f 97/172/34 162/173/34 98/174/34
f 150/175/11 107/176/11 148/170/11
f 151/177/25 121/178/25 149/179/25
f 152/180/12 108/181/12 150/175/12
f 153/182/26 122/183/26 151/177/26
f 154/184/13 109/185/13 152/180/13
f 155/186/27 123/187/27 153/182/27
f 156/188/14 110/189/14 154/184/14
f 105/166/34 163/190/34 164/191/34
f 158/192/28 124/136/28 155/186/28
f 159/193/15 111/194/15 156/188/15
f 160/195/2 98/174/2 157/196/2
f 130/71/29 125/197/29 158/192/29
f 147/168/31 173/198/31 172/199/31
f 134/144/3 99/200/3 160/195/3
f 7/77/3 160/195/3 5/76/3
f 33/104/16 159/193/16 31/102/16
f 59/130/29 158/192/29 57/128/29
f 5/76/2 157/196/2 3/74/2
f 31/102/15 156/188/15 29/100/15
f 55/125/28 158/192/28 155/186/28
f 3/74/1 138/151/1 1/72/1
f 29/100/14 154/184/14 27/98/14
f 55/125/27 153/182/27 53/124/27
f 27/98/13 152/180/13 25/96/13
f 53/124/26 151/177/26 51/122/26
f 25/96/12 150/175/12 23/93/12
f 51/122/25 149/179/25 49/120/25
f 23/93/11 148/170/11 21/91/11
f 49/120/24 147/168/24 47/117/24
f 21/91/10 146/165/10 19/89/10
f 47/117/23 145/163/23 45/116/23
f 19/89/9 144/167/9 17/88/9
f 45/116/22 143/160/22 43/113/22
f 17/88/8 142/158/8 15/86/8
f 43/113/21 141/156/21 41/111/21
f 15/86/7 140/154/7 13/84/7
f 41/111/20 139/152/20 39/110/20
f 13/84/6 137/149/6 11/81/6
f 39/110/19 136/147/19 37/107/19
f 1/72/33 135/145/33 63/134/33
f 11/81/5 133/142/5 9/79/5
f 37/107/18 131/139/18 35/105/18
f 63/134/32 129/69/32 61/132/32
f 9/79/4 134/144/4 7/77/4
f 35/105/17 132/141/17 33/104/17
f 61/132/30 130/71/30 59/130/30
f 171/201/8 163/190/8 170/202/8
f 173/198/24 167/203/24 172/199/24
f 174/204/1 161/205/1 169/206/1
f 176/207/16 165/208/16 175/209/16
f 121/178/33 173/198/33 149/179/33
f 113/140/24 176/207/24 132/141/24
f 142/158/33 163/190/33 104/210/33
f 120/211/34 168/212/34 121/178/34
f 98/174/9 174/204/9 157/196/9
f 159/193/31 176/207/31 175/209/31
f 105/166/16 171/201/16 144/167/16
f 159/193/8 165/208/8 112/138/8
f 144/167/31 170/202/31 142/158/31
f 138/151/25 161/205/25 97/172/25
f 147/168/16 167/203/16 120/211/16
f 157/196/31 169/206/31 138/151/31
f 2/1/1 4/4/1 66/2/1
f 4/4/2 6/6/2 67/5/2
f 6/6/3 8/8/3 68/7/3
f 8/8/4 10/10/4 69/9/4
f 10/10/5 12/12/5 70/11/5
f 12/12/6 14/14/6 71/13/6
f 14/14/7 16/16/7 72/15/7
f 16/16/8 18/18/8 73/17/8
f 18/18/9 20/20/9 74/19/9
f 20/20/10 22/22/10 75/21/10
f 22/22/11 24/24/11 76/23/11
f 24/24/12 26/26/12 77/25/12
f 26/26/13 28/28/13 78/27/13
f 28/28/14 30/30/14 79/29/14
f 30/30/15 32/32/15 80/31/15
f 32/32/16 34/34/16 81/33/16
f 34/34/17 36/36/17 82/35/17
f 36/36/18 38/38/18 83/37/18
f 38/38/19 40/40/19 84/39/19
f 40/40/20 42/42/20 85/41/20
f 42/42/21 44/44/21 86/43/21
f 44/44/22 46/46/22 87/45/22
f 46/46/23 48/48/23 88/47/23
f 48/48/24 50/50/24 89/49/24
f 50/50/25 52/52/25 90/51/25
f 52/52/26 54/54/26 91/53/26
f 54/54/27 56/56/27 92/55/27
f 56/56/28 58/58/28 93/57/28
f 58/58/29 60/60/29 94/59/29
f 60/60/30 62/65/30 95/61/30
f 6/213/31 4/214/31 2/215/31
f 2/215/31 64/216/31 6/213/31
f 64/216/31 62/217/31 6/213/31
f 62/217/31 60/218/31 58/219/31
f 58/219/31 56/220/31 54/62/31
f 54/62/31 52/221/31 50/222/31
f 50/222/31 48/223/31 54/62/31
f 48/223/31 46/224/31 54/62/31
f 46/224/31 44/225/31 38/63/31
f 44/225/31 42/226/31 38/63/31
f 42/226/31 40/227/31 38/63/31
f 38/63/31 36/228/31 34/229/31
f 34/229/31 32/230/31 30/231/31
f 30/231/31 28/232/31 26/233/31
f 26/233/31 24/234/31 22/64/31
f 22/64/31 20/235/31 18/236/31
f 18/236/31 16/237/31 22/64/31
f 16/237/31 14/238/31 22/64/31
f 14/238/31 12/239/31 10/240/31
f 10/240/31 8/241/31 6/213/31
f 62/217/31 58/219/31 6/213/31
f 58/219/31 54/62/31 6/213/31
f 38/63/31 34/229/31 22/64/31
f 34/229/31 30/231/31 22/64/31
f 30/231/31 26/233/31 22/64/31
f 14/238/31 10/240/31 22/64/31
f 10/240/31 6/213/31 22/64/31
f 54/62/31 46/224/31 38/63/31
f 6/213/31 54/62/31 22/64/31
f 62/65/32 64/67/32 96/66/32
f 64/67/33 2/242/33 65/68/33
f 129/69/30 127/146/30 126/70/30
f 1/72/34 65/135/34 66/73/34
f 3/74/34 66/73/34 67/75/34
f 7/77/34 5/76/34 67/75/34
f 9/79/34 7/77/34 68/78/34
f 11/81/34 9/79/34 69/80/34
f 11/81/34 70/82/34 71/83/34
f 13/84/34 71/83/34 72/85/34
f 15/86/34 72/85/34 73/87/34
f 19/89/34 17/88/34 73/87/34
f 21/91/34 19/89/34 74/90/34
f 23/93/34 21/91/34 75/92/34
f 23/93/34 76/94/34 77/95/34
f 25/96/34 77/95/34 78/97/34
f 27/98/34 78/97/34 79/99/34
f 29/100/34 79/99/34 80/101/34
f 31/102/34 80/101/34 81/103/34
f 35/105/34 33/104/34 81/103/34
f 37/107/34 35/105/34 82/106/34
f 37/107/34 83/108/34 84/109/34
f 41/111/34 39/110/34 84/109/34
f 43/113/34 41/111/34 85/112/34
f 43/113/34 86/114/34 87/115/34
f 47/117/34 45/116/34 87/115/34
f 47/117/34 88/118/34 89/119/34
f 49/120/34 89/119/34 90/121/34
f 51/122/34 90/121/34 91/123/34
f 55/125/34 53/124/34 91/123/34
f 55/125/34 92/126/34 93/127/34
f 57/128/34 93/127/34 94/129/34
f 59/130/34 94/129/34 95/131/34
f 61/132/34 95/131/34 96/133/34
f 1/72/34 63/134/34 96/133/34
f 128/137/34 97/172/34 98/174/34
f 98/174/34 99/200/34 128/137/34
f 99/200/34 100/143/34 128/137/34
f 100/143/34 101/150/34 104/210/34
f 101/150/34 102/155/34 104/210/34
f 102/155/34 103/159/34 104/210/34
f 104/210/34 105/166/34 106/171/34
f 106/171/34 107/176/34 108/181/34
f 108/181/34 109/185/34 110/189/34
f 110/189/34 111/194/34 108/181/34
f 111/194/34 112/138/34 108/181/34
f 112/138/34 113/140/34 114/148/34
f 114/148/34 115/153/34 112/138/34
f 115/153/34 116/157/34 112/138/34
f 116/157/34 117/161/34 118/164/34
f 118/164/34 119/169/34 116/157/34
f 119/169/34 120/211/34 116/157/34
f 120/211/34 121/178/34 122/183/34
f 122/183/34 123/187/34 120/211/34
f 123/187/34 124/136/34 120/211/34
f 124/136/34 125/197/34 128/137/34
f 125/197/34 126/70/34 128/137/34
f 126/70/34 127/146/34 128/137/34
f 104/210/34 106/171/34 112/138/34
f 106/171/34 108/181/34 112/138/34
f 128/137/34 100/143/34 112/138/34
f 100/143/34 104/210/34 112/138/34
f 112/138/34 116/157/34 120/211/34
f 120/211/34 124/136/34 112/138/34
f 131/139/17 114/148/17 113/140/17
f 133/142/4 101/150/4 100/143/4
f 135/145/32 128/137/32 127/146/32
f 136/147/18 115/153/18 114/148/18
f 137/149/5 102/155/5 101/150/5
f 138/151/33 97/172/33 128/137/33
f 139/152/19 116/157/19 115/153/19
f 140/154/6 103/159/6 102/155/6
f 141/156/20 117/161/20 116/157/20
f 142/158/7 104/210/7 103/159/7
f 143/160/21 118/164/21 117/161/21
f 112/138/34 165/208/34 166/162/34
f 145/163/22 119/169/22 118/164/22
f 146/165/9 106/171/9 105/166/9
f 147/168/23 120/211/23 119/169/23
f 148/170/10 107/176/10 106/171/10
f 97/172/34 161/205/34 162/173/34
f 150/175/11 108/181/11 107/176/11
f 151/177/25 122/183/25 121/178/25
f 152/180/12 109/185/12 108/181/12
f 153/182/26 123/187/26 122/183/26
f 154/184/13 110/189/13 109/185/13
f 155/186/27 124/136/27 123/187/27
f 156/188/14 111/194/14 110/189/14
f 105/166/34 104/210/34 163/190/34
f 158/192/28 125/197/28 124/136/28
f 159/193/15 112/138/15 111/194/15
f 160/195/2 99/200/2 98/174/2
f 130/71/29 126/70/29 125/197/29
f 147/168/31 149/179/31 173/198/31
f 134/144/3 100/143/3 99/200/3
f 7/77/3 134/144/3 160/195/3
f 33/104/16 132/141/16 159/193/16
f 59/130/29 130/71/29 158/192/29
f 5/76/2 160/195/2 157/196/2
f 31/102/15 159/193/15 156/188/15
f 55/125/28 57/128/28 158/192/28
f 3/74/1 157/196/1 138/151/1
f 29/100/14 156/188/14 154/184/14
f 55/125/27 155/186/27 153/182/27
f 27/98/13 154/184/13 152/180/13
f 53/124/26 153/182/26 151/177/26
f 25/96/12 152/180/12 150/175/12
f 51/122/25 151/177/25 149/179/25
f 23/93/11 150/175/11 148/170/11
f 49/120/24 149/179/24 147/168/24
f 21/91/10 148/170/10 146/165/10
f 47/117/23 147/168/23 145/163/23
f 19/89/9 146/165/9 144/167/9
f 45/116/22 145/163/22 143/160/22
f 17/88/8 144/167/8 142/158/8
f 43/113/21 143/160/21 141/156/21
f 15/86/7 142/158/7 140/154/7
f 41/111/20 141/156/20 139/152/20
f 13/84/6 140/154/6 137/149/6
f 39/110/19 139/152/19 136/147/19
f 1/72/33 138/151/33 135/145/33
f 11/81/5 137/149/5 133/142/5
f 37/107/18 136/147/18 131/139/18
f 63/134/32 135/145/32 129/69/32
f 9/79/4 133/142/4 134/144/4
f 35/105/17 131/139/17 132/141/17
f 61/132/30 129/69/30 130/71/30
f 171/201/8 164/191/8 163/190/8
f 173/198/24 168/212/24 167/203/24
f 174/204/1 162/173/1 161/205/1
f 176/207/16 166/162/16 165/208/16
f 121/178/33 168/212/33 173/198/33
f 113/140/24 166/162/24 176/207/24
f 142/158/33 170/202/33 163/190/33
f 120/211/34 167/203/34 168/212/34
f 98/174/9 162/173/9 174/204/9
f 159/193/31 132/141/31 176/207/31
f 105/166/16 164/191/16 171/201/16
f 159/193/8 175/209/8 165/208/8
f 144/167/31 171/201/31 170/202/31
f 138/151/25 169/206/25 161/205/25
f 147/168/16 172/199/16 167/203/16
f 157/196/31 174/204/31 169/206/31
