# Blender v2.91.0 OBJ File: 'warehouse door.blend'
# www.blender.org
mtllib warehouse.mtl
o Cube.001_Cube.002
v -0.065696 3.562730 1.461942
v -0.065696 -0.012291 1.461942
v -0.065696 3.562730 -1.406342
v -0.065696 -0.012291 -1.406342
v 0.065696 3.562730 1.461942
v 0.065696 -0.012291 1.461942
v 0.065696 3.562730 -1.406342
v 0.065696 -0.012291 -1.406342
v 0.065696 2.651841 -1.359930
v 0.065696 3.046864 -1.359930
v 0.065696 2.660486 1.408594
v 0.065696 3.038218 1.408594
v -0.065696 3.562730 -0.844024
v -0.065696 3.562730 -0.270367
v -0.065696 3.562730 0.303290
v -0.065696 3.562730 0.876946
v 0.065696 3.562730 0.876946
v 0.065696 3.562730 0.303290
v 0.065696 3.562730 -0.270367
v 0.065696 3.562730 -0.844024
v 0.065696 3.050489 -0.800521
v 0.065696 3.047521 -0.224483
v 0.065696 3.055995 0.342375
v 0.065696 3.038218 0.930294
v 0.065696 2.648215 -0.800521
v 0.065696 2.651183 -0.224483
v 0.065696 2.642710 0.342375
v 0.065696 2.660486 0.930294
v 0.065696 2.593994 1.461942
v 0.065696 3.104711 1.461942
v 0.065696 3.055995 0.837861
v 0.065696 2.642710 0.837861
v 0.065696 3.047521 0.257406
v 0.065696 3.104711 0.876946
v 0.065696 2.651183 0.257406
v 0.065696 2.593994 0.876946
v 0.065696 3.050489 -0.313870
v 0.065696 3.104711 0.303290
v 0.065696 2.648215 -0.313870
v 0.065696 2.593994 0.303290
v 0.065696 3.046864 -0.890435
v 0.065696 3.104711 -0.270367
v 0.065696 2.651841 -0.890435
v 0.065696 2.593994 -0.270367
v 0.065696 2.593994 -1.406342
v 0.065696 3.104711 -1.406342
v 0.065696 3.104711 -0.844024
v 0.065696 2.593994 -0.844024
v -0.019435 2.660486 1.408594
v -0.019435 3.038218 1.408594
v -0.019435 3.038218 0.930294
v -0.019435 2.660486 0.930294
v -0.019435 3.055995 0.342375
v -0.019435 3.055995 0.837861
v -0.019435 2.642710 0.342375
v -0.019435 2.642710 0.837861
v -0.019435 3.047521 -0.224483
v -0.019435 3.047521 0.257406
v -0.019435 2.651183 -0.224483
v -0.019435 2.651183 0.257406
v -0.019435 3.050489 -0.800521
v -0.019435 3.050489 -0.313870
v -0.019435 2.648215 -0.800521
v -0.019435 2.648215 -0.313870
v -0.019435 2.651841 -1.359930
v -0.019435 3.046864 -1.359930
v -0.019435 3.046864 -0.890435
v -0.019435 2.651841 -0.890435
vt 0.375000 0.699012
vt 0.125000 0.699012
vt 0.125000 0.750000
vt 0.442743 0.750000
vt 0.625000 1.000000
vt 0.625000 0.750000
vt 0.411028 0.645012
vt 0.438744 0.645012
vt 0.438744 0.645012
vt 0.625000 0.250000
vt 0.442743 0.500000
vt 0.625000 0.500000
vt 0.438952 0.552803
vt 0.410821 0.552803
vt 0.410821 0.552803
vt 0.410436 0.695605
vt 0.439337 0.695605
vt 0.439337 0.695605
vt 0.411074 0.504045
vt 0.411074 0.544966
vt 0.411074 0.544966
vt 0.438744 0.603011
vt 0.411028 0.603011
vt 0.411028 0.603011
vt 0.407029 0.649012
vt 0.375000 0.649012
vt 0.875000 0.750000
vt 0.875000 0.500000
vt 0.375000 0.500000
vt 0.125000 0.500000
vt 0.125000 0.549012
vt 0.375000 0.549012
vt 0.125000 0.599012
vt 0.375000 0.599012
vt 0.125000 0.649012
vt 0.442743 0.599012
vt 0.442743 0.549012
vt 0.375000 0.100988
vt 0.625000 0.000000
vt 0.375000 0.050988
vt 0.438094 0.745350
vt 0.411679 0.745350
vt 0.407029 0.750000
vt 0.411679 0.703662
vt 0.407029 0.699012
vt 0.438094 0.703662
vt 0.442743 0.699012
vt 0.410436 0.652418
vt 0.439337 0.652418
vt 0.442743 0.649012
vt 0.407029 0.599012
vt 0.407029 0.549012
vt 0.438952 0.595220
vt 0.410821 0.595220
vt 0.438698 0.504045
vt 0.407029 0.500000
vt 0.438698 0.544966
vt 0.438094 0.703662
vt 0.411679 0.703662
vt 0.411679 0.745350
vt 0.438698 0.504045
vt 0.411074 0.504045
vt 0.438952 0.552803
vt 0.410821 0.595220
vt 0.438744 0.603011
vt 0.411028 0.645012
vt 0.439337 0.652418
vt 0.410436 0.652418
vt 0.410436 0.695605
vt 0.438952 0.595220
vt 0.438698 0.544966
vt 0.438094 0.745350
vt 0.375000 0.750000
vt 0.375000 1.000000
vt 0.375000 0.250000
vt 0.375000 0.000000
vt 0.375000 0.200988
vt 0.375000 0.150988
vn 0.0000 1.0000 0.0000
vn 0.0000 0.0000 1.0000
vn 0.0000 0.0000 -1.0000
vn 0.0000 -1.0000 0.0000
vn 1.0000 0.0000 0.0000
vn -1.0000 -0.0000 0.0000
usemtl None
s off
f 17/1/1 16/2/1 1/3/1
f 29/4/2 2/5/2 6/6/2
f 33/7/3 35/8/3 60/9/3
f 4/10/3 45/11/3 8/12/3
f 25/13/2 21/14/2 61/15/2
f 31/16/3 32/17/3 56/18/3
f 10/19/4 41/20/4 67/21/4
f 26/22/2 22/23/2 57/24/2
f 38/25/5 18/26/5 17/1/5
f 2/27/4 4/28/4 8/12/4
f 7/29/1 3/30/1 13/31/1
f 20/32/1 13/31/1 14/33/1
f 19/34/1 14/33/1 15/35/1
f 18/26/1 15/35/1 16/2/1
f 44/36/5 8/12/5 48/37/5
f 15/38/6 2/39/6 16/40/6
f 11/41/5 12/42/5 30/43/5
f 12/42/5 24/44/5 34/45/5
f 28/46/5 11/41/5 29/4/5
f 24/44/5 28/46/5 36/47/5
f 31/16/5 23/48/5 38/25/5
f 27/49/5 32/17/5 36/47/5
f 23/48/5 27/49/5 40/50/5
f 31/16/5 34/45/5 36/47/5
f 33/7/5 22/23/5 42/51/5
f 26/22/5 35/8/5 40/50/5
f 22/23/5 26/22/5 44/36/5
f 35/8/5 33/7/5 38/25/5
f 21/14/5 47/52/5 42/51/5
f 25/13/5 39/53/5 44/36/5
f 21/14/5 25/13/5 48/37/5
f 39/53/5 37/54/5 42/51/5
f 10/19/5 9/55/5 45/11/5
f 41/20/5 10/19/5 46/56/5
f 9/55/5 43/57/5 48/37/5
f 43/57/5 41/20/5 47/52/5
f 52/58/5 51/59/5 50/60/5
f 65/61/5 66/62/5 67/21/5
f 63/63/5 61/15/5 62/64/5
f 59/65/5 57/24/5 58/66/5
f 55/67/5 53/68/5 54/69/5
f 43/57/1 9/55/1 65/61/1
f 37/54/3 39/53/3 64/70/3
f 41/20/3 43/57/3 68/71/3
f 12/42/3 11/41/3 49/72/3
f 23/48/4 31/16/4 54/69/4
f 24/44/4 12/42/4 50/60/4
f 22/23/4 33/7/4 58/66/4
f 32/17/1 27/49/1 55/67/1
f 21/14/4 37/54/4 62/64/4
f 11/41/1 28/46/1 52/58/1
f 35/8/1 26/22/1 59/65/1
f 9/55/2 10/19/2 66/62/2
f 27/49/2 23/48/2 53/68/2
f 39/53/1 25/13/1 63/63/1
f 28/46/2 24/44/2 51/59/2
f 17/1/1 1/3/1 5/73/1
f 5/73/2 1/74/2 30/43/2
f 30/43/2 1/74/2 29/4/2
f 1/74/2 2/5/2 29/4/2
f 33/7/3 60/9/3 58/66/3
f 7/29/3 46/56/3 3/75/3
f 3/75/3 45/11/3 4/10/3
f 46/56/3 45/11/3 3/75/3
f 25/13/2 61/15/2 63/63/2
f 31/16/3 56/18/3 54/69/3
f 10/19/4 67/21/4 66/62/4
f 26/22/2 57/24/2 59/65/2
f 46/56/5 7/29/5 47/52/5
f 47/52/5 20/32/5 42/51/5
f 7/29/5 20/32/5 47/52/5
f 38/25/5 17/1/5 34/45/5
f 34/45/5 5/73/5 30/43/5
f 34/45/5 17/1/5 5/73/5
f 42/51/5 19/34/5 38/25/5
f 20/32/5 19/34/5 42/51/5
f 18/26/5 38/25/5 19/34/5
f 2/27/4 8/12/4 6/6/4
f 7/29/1 13/31/1 20/32/1
f 20/32/1 14/33/1 19/34/1
f 19/34/1 15/35/1 18/26/1
f 18/26/1 16/2/1 17/1/1
f 36/47/5 6/6/5 40/50/5
f 40/50/5 8/12/5 44/36/5
f 48/37/5 8/12/5 45/11/5
f 29/4/5 6/6/5 36/47/5
f 40/50/5 6/6/5 8/12/5
f 16/40/6 2/39/6 1/76/6
f 2/39/6 15/38/6 4/10/6
f 4/10/6 13/77/6 3/75/6
f 13/77/6 4/10/6 14/78/6
f 14/78/6 4/10/6 15/38/6
f 11/41/5 30/43/5 29/4/5
f 12/42/5 34/45/5 30/43/5
f 28/46/5 29/4/5 36/47/5
f 24/44/5 36/47/5 34/45/5
f 31/16/5 38/25/5 34/45/5
f 27/49/5 36/47/5 40/50/5
f 23/48/5 40/50/5 38/25/5
f 31/16/5 36/47/5 32/17/5
f 33/7/5 42/51/5 38/25/5
f 26/22/5 40/50/5 44/36/5
f 22/23/5 44/36/5 42/51/5
f 35/8/5 38/25/5 40/50/5
f 21/14/5 42/51/5 37/54/5
f 25/13/5 44/36/5 48/37/5
f 21/14/5 48/37/5 47/52/5
f 39/53/5 42/51/5 44/36/5
f 10/19/5 45/11/5 46/56/5
f 41/20/5 46/56/5 47/52/5
f 9/55/5 48/37/5 45/11/5
f 43/57/5 47/52/5 48/37/5
f 52/58/5 50/60/5 49/72/5
f 65/61/5 67/21/5 68/71/5
f 63/63/5 62/64/5 64/70/5
f 59/65/5 58/66/5 60/9/5
f 55/67/5 54/69/5 56/18/5
f 43/57/1 65/61/1 68/71/1
f 37/54/3 64/70/3 62/64/3
f 41/20/3 68/71/3 67/21/3
f 12/42/3 49/72/3 50/60/3
f 23/48/4 54/69/4 53/68/4
f 24/44/4 50/60/4 51/59/4
f 22/23/4 58/66/4 57/24/4
f 32/17/1 55/67/1 56/18/1
f 21/14/4 62/64/4 61/15/4
f 11/41/1 52/58/1 49/72/1
f 35/8/1 59/65/1 60/9/1
f 9/55/2 66/62/2 65/61/2
f 27/49/2 53/68/2 55/67/2
f 39/53/1 63/63/1 64/70/1
f 28/46/2 51/59/2 52/58/2
